<mxfile host="app.diagrams.net" modified="2023-10-23T05:22:02.716Z" agent="Mozilla/5.0 (Windows NT 10.0; Win64; x64) AppleWebKit/537.36 (KHTML, like Gecko) Chrome/118.0.0.0 Safari/537.36" version="21.8.0" etag="z84QGOH8QCx3ZT0wulFm" type="github">
  <diagram name="第 1 页" id="svBvwfE0gTRqNx5Le4qt">
    <mxGraphModel>
      <root>
        <mxCell id="0" />
        <mxCell id="1" parent="0" />
      </root>
    </mxGraphModel>
  </diagram>
</mxfile>
